HIERARCHY
ROOT Hips
{
  OFFSET 40.9192 92.6879 18.85
  CHANNELS 6 Xposition Yposition Zposition Zrotation Xrotation Yrotation
  JOINT LeftUpLeg
  {
    OFFSET 8.64259 1.95398 -2.38835
    CHANNELS 3 Zrotation Xrotation Yrotation
    JOINT LeftLeg
    {
      OFFSET 43.7702 0 0
      CHANNELS 3 Zrotation Xrotation Yrotation
      JOINT LeftFoot
      {
        OFFSET 40.6238 0 0
        CHANNELS 3 Zrotation Xrotation Yrotation
        JOINT LeftToeBase
        {
          OFFSET 12.7242 0 0
          CHANNELS 3 Zrotation Xrotation Yrotation
          End Site
          {
            OFFSET 0 0 0
          }
        }
      }
    }
  }
  JOINT RightUpLeg
  {
    OFFSET -8.2249 1.95398 -2.59336
    CHANNELS 3 Zrotation Xrotation Yrotation
    JOINT RightLeg
    {
      OFFSET 43.5653 0 0
      CHANNELS 3 Zrotation Xrotation Yrotation
      JOINT RightFoot
      {
        OFFSET 40.6238 0 0
        CHANNELS 3 Zrotation Xrotation Yrotation
        JOINT RightToeBase
        {
          OFFSET 12.7242 0 0
          CHANNELS 3 Zrotation Xrotation Yrotation
          End Site
          {
            OFFSET 0 0 0
          }
        }
      }
    }
  }
  JOINT Spine
  {
    OFFSET 0.165834 0.87714 6.61349
    CHANNELS 3 Zrotation Xrotation Yrotation
    JOINT Spine1
    {
      OFFSET 7.38963 1.71661e-005 0
      CHANNELS 3 Zrotation Xrotation Yrotation
      JOINT Spine2
      {
        OFFSET 11.9445 1.14441e-005 0
        CHANNELS 3 Zrotation Xrotation Yrotation
        JOINT Spine3
        {
          OFFSET 14.7254 4.19617e-005 0
          CHANNELS 3 Zrotation Xrotation Yrotation
          JOINT Spine4
          {
            OFFSET 10.9679 0 0
            CHANNELS 3 Zrotation Xrotation Yrotation
            JOINT RightShoulder
            {
              OFFSET 2.46616 -1.6653 3.69651
              CHANNELS 3 Zrotation Xrotation Yrotation
              JOINT RightArm
              {
                OFFSET 13.0012 0 0
                CHANNELS 3 Zrotation Xrotation Yrotation
                JOINT RightForeArm
                {
                  OFFSET 28.7848 1.52588e-005 0
                  CHANNELS 3 Zrotation Xrotation Yrotation
                  JOINT RightHand
                  {
                    OFFSET 26.5688 1.52588e-005 0
                    CHANNELS 3 Zrotation Xrotation Yrotation
                    End Site
                    {
                      OFFSET 0 0 0
                    }
                  }
                }
              }
            }
            JOINT LeftShoulder
            {
              OFFSET 2.38034 -1.29275 -3.7523
              CHANNELS 3 Zrotation Xrotation Yrotation
              JOINT LeftArm
              {
                OFFSET 16.3182 6.10351e-005 0
                CHANNELS 3 Zrotation Xrotation Yrotation
                JOINT LeftForeArm
                {
                  OFFSET 27.0901 0 0
                  CHANNELS 3 Zrotation Xrotation Yrotation
                  JOINT LeftHand
                  {
                    OFFSET 24.5451 1.52588e-005 0
                    CHANNELS 3 Zrotation Xrotation Yrotation
                    End Site
                    {
                      OFFSET 0 0 0
                    }
                  }
                }
              }
            }
            JOINT Neck
            {
              OFFSET 5.0226 -0.0266342 0
              CHANNELS 3 Zrotation Xrotation Yrotation
              JOINT Head
              {
                OFFSET 6.69363 2.86102e-005 0
                CHANNELS 3 Zrotation Xrotation Yrotation
                End Site
                {
                  OFFSET 0 0 0
                }
              }
            }
          }
        }
      }
    }
  }
}
MOTION
Frames:	14
Frame Time:	0.0416667
27.9406 92.1703 -28.6431 94.3074 -48.7726 87.5916 -169.212 23.5788 85.5421 -31.1231 14.6972 -6.9484 62.3863 3.01151 6.34296 32.5629 2.86781 2.35543 178.989 5.00359 83.6629 -64.626 -7.69762 -7.19045 36.293 5.14666 5.40717 34.9981 0.37566 -5.48934 1.14324 7.74433 -88.9452 11.3613 2.76674 1.82265 -0.307789 2.84427 1.69908 -22.8476 2.09123 2.56984 -2.83497 2.09122 2.56984 92.8813 -45.5153 -97.242 28.5412 -9.73358 -0.990324 -9.73925 -18.9604 -53.9578 -13.4609 -1.06107 3.01618 -91.3856 -49.2932 76.4937 -33.2 8.94823 21.1718 2.94391 16.0692 -19.7514 4.36761 0.586671 7.05274 5.86399 -4.48769 2.61712 0.984579 -5.08287 -4.62617 
34.0024 93.6786 -24.5459 94.5686 -46.7026 88.5692 -170.401 17.6252 85.4044 -29.7865 13.1769 -5.99706 66.3857 6.12361 4.42232 29.2075 0.213613 1.29438 179.39 12.6282 85.2457 -69.9347 -0.170884 -5.2591 43.259 2.2319 2.2699 29.2973 0.384346 -5.98975 0.844283 7.74966 -89.1386 11.3594 2.08167 1.50667 -0.310644 2.14595 1.41356 -22.8469 1.5327 2.06258 -2.83428 1.53272 2.06258 93.453 -46.8518 -96.0635 29.0552 -9.58521 2.0072 -7.64392 -20.6422 -48.6499 -10.712 -1.00049 3.7713 -92.1054 -48.6283 75.2438 -33.739 10.4184 16.1816 1.80192 12.0061 -22.1636 8.35212 0.904298 6.1989 5.36101 -3.93178 2.67911 0.612227 -4.47623 -3.68491 
40.1513 95.6068 -20.6334 95.1398 -43.638 90.8416 -171.991 11.0025 86.2351 -26.186 14.7187 -4.50476 65.6855 5.31775 4.67069 30.449 1.15011 2.15212 178.003 17.388 87.6236 -66.9644 1.59495 -3.62527 50.8583 0.0617267 0.262177 32.5221 0.416085 -6.62925 0.42994 7.76545 -89.4879 11.3381 1.09434 0.910772 -0.332651 1.13336 0.861717 -22.8672 0.770025 1.19753 -2.85457 0.770044 1.19754 93.986 -47.6651 -95.0705 29.3753 -8.98322 5.74665 -8.39992 -24.1836 -45.4109 -4.40112 -0.69201 3.90518 -92.5687 -48.0907 74.4034 -33.3668 10.8511 11.7948 2.4298 8.55485 -28.7934 12.1408 1.09049 4.91527 4.81796 -2.96684 1.66468 0.606055 -3.22009 -0.783599 
45.8016 96.7983 -16.5653 94.1056 -40.2948 90.8662 -172.281 5.3641 86.7961 -21.8599 15.8763 -3.98836 65.2293 4.57823 4.16772 31.9193 2.34716 2.25413 176.372 21.1018 89.0299 -57.03 2.12882 -2.14635 57.3897 -1.3913 -0.79327 35.8231 0.361852 -4.58993 -0.0402911 7.70336 -89.713 11.4661 0.0540304 0.566384 -0.204971 0.078927 0.563445 -22.7392 -0.118686 0.556437 -2.72657 -0.118671 0.55644 94.2151 -48.5677 -94.561 28.7997 -8.33936 9.7743 -10.413 -28.6983 -43.5518 0.211036 -0.549626 4.69629 -93.351 -47.6576 73.0978 -31.1674 12.21 6.95902 2.77439 6.02643 -36.5704 14.4834 0.967197 2.73915 4.94025 -2.19171 1.1059 0.602475 -2.27649 1.15044 
51.0031 97.0423 -12.2542 92.5427 -37.3597 89.7542 -171.915 1.2869 87.5682 -19.6521 17.8809 -3.99361 64.9674 3.84017 3.41647 34.1548 4.16117 2.90828 175.224 22.3735 89.4951 -40.0872 1.84977 -0.741171 61.3553 -2.29285 -1.34422 37.5842 0.358256 -6.54554 -0.427476 7.62913 -89.7598 11.6173 -0.737766 0.555225 -0.0535613 -0.712628 0.587153 -22.59 -0.870534 0.307809 -2.57732 -0.870533 0.307811 94.2944 -49.5521 -94.2822 28.5981 -7.7106 13.7688 -10.2877 -30.8062 -41.5531 3.23665 -0.40954 5.014 -93.4579 -45.8456 72.4118 -28.4218 12.7854 1.33788 6.00528 6.77476 -44.7156 14.7423 0.831994 1.75561 5.98394 -1.78811 0.108754 0.299545 -1.67256 2.34765 
56.3707 96.1379 -7.63917 91.7122 -35.4597 88.2865 -171.532 -2.22013 87.741 -20.3638 18.8573 -4.07916 66.1954 4.31734 2.5213 38.0687 7.42883 4.31227 174.883 20.5862 88.9414 -17.499 -2.56659 -0.284136 62.3646 -2.70471 -1.6167 42.9805 0.210584 -8.34862 -0.709408 7.61869 -89.6754 11.641 -1.25895 0.777805 -0.0296428 -1.22348 0.83246 -22.5691 -1.43451 0.363421 -2.55649 -1.43447 0.363428 94.9128 -49.7723 -93.289 29.1564 -6.90775 16.9973 -10.9663 -32.4413 -40.4224 5.76711 -0.274547 5.93512 -93.2365 -43.7166 72.1232 -24.4922 12.9548 -4.80336 7.18121 5.3418 -50.9983 14.5861 0.663567 0.685147 7.27562 -1.4067 -1.23807 -0.248907 -1.01622 3.69797 
61.8588 94.726 -2.6597 90.5205 -34.5491 86.9493 -171.089 -5.39574 88.5844 -21.27 22.0518 -3.87003 67.6705 6.8762 5.9272 40.0165 8.96607 2.66866 175.398 22.7173 89.1243 -5.17874 -4.22513 -0.520968 66.0308 -2.93508 -1.60304 46.055 0.264433 -6.90214 -0.880552 7.5821 -89.6296 11.7162 -1.57755 0.903877 0.0458007 -1.53626 0.972437 -22.4962 -1.77625 0.387859 -2.48356 -1.77626 0.38786 95.9612 -49.9717 -91.6379 28.8543 -6.35546 19.4094 -11.6151 -33.3054 -40.1846 7.78983 -0.164278 6.20594 -92.606 -42.1278 72.6521 -21.0697 11.1502 -9.99297 8.31418 3.99064 -56.1972 13.9865 0.545487 0.0516912 8.76594 -1.12889 -2.58485 -1.10318 -0.453281 5.09543 
67.311 93.1189 2.57338 91.4071 -32.5964 86.4829 -170.927 -8.07558 90.1292 -25.947 27.2054 -2.93817 66.0937 5.95785 4.96553 44.953 13.2069 4.31911 175.016 23.9635 88.8432 -4.43735 -2.75606 -0.132601 69.8263 -4.27732 -2.24426 44.0281 0.541555 -2.82137 -1.19379 7.67366 -89.5248 11.538 -2.1527 1.16773 -0.131822 -2.09924 1.26137 -22.6804 -2.40408 0.46647 -2.66771 -2.40408 0.466473 97.3075 -51.0515 -89.4436 27.5467 -5.08887 21.3683 -12.6037 -32.7925 -40.249 9.43324 -0.118516 5.31228 -91.9242 -40.5267 73.2841 -19.2016 9.11944 -13.9976 9.00123 3.58326 -58.2333 15.1238 0.667117 0.552662 9.46702 -0.822036 -4.57619 -1.61151 0.285139 6.99764 
73.6302 91.6808 8.17492 92.5089 -33.4951 88.302 -170.898 -10.4201 92.3533 -31.8832 29.3095 -0.788807 61.3383 1.75389 1.57818 50.0837 18.3698 8.49447 176.024 26.8273 90.615 -16.4463 -2.44503 -0.212612 63.3846 -2.05072 -1.08857 43.1748 0.371871 -5.66952 -1.24916 7.65248 -89.694 11.5786 -2.34161 0.851876 -0.0906329 -2.30189 0.954146 -22.6425 -2.48933 0.10833 -2.62986 -2.48934 0.10832 97.1035 -50.0195 -89.8604 27.7381 -3.69629 23.5334 -11.0693 -30.2581 -38.225 7.92208 -0.122171 5.42785 -91.2051 -40.2988 74.4107 -19.674 7.21867 -12.7185 10.2329 3.37476 -60.6779 15.748 0.799392 1.21074 9.24967 0.211548 -4.51356 -2.7447 1.22106 7.55089 
80.4269 91.1308 13.5822 94.0236 -34.4121 93.4267 -169.992 -10.3423 97.1106 -38.485 26.934 1.42446 46.9581 -8.16651 -7.11278 51.5218 21.2727 14.8997 176.419 28.5629 94.6652 -30.7557 -1.96471 0.488546 60.1737 -0.704427 -0.289973 36.6896 0.367801 -5.74754 -1.22663 7.67489 -90.2359 11.5241 -2.55061 -0.208711 -0.144334 -2.55731 -0.0961839 -22.6973 -2.3699 -0.966052 -2.68468 -2.36989 -0.96605 96.1373 -50.0321 -91.3562 26.109 -2.25965 24.008 -11.7859 -30.5366 -37.0526 5.40134 -0.244962 6.48663 -91.1576 -42.5809 75.1282 -19.2735 6.98075 -9.08286 9.48995 2.56584 -62.0529 17.3864 1.08085 2.34856 9.17282 1.17437 -3.96846 -4.26539 1.96374 8.58829 
86.1334 90.6698 18.3789 96.2889 -36.6979 96.073 -170.671 -5.19574 98.0452 -51.5077 22.7613 1.64252 35.078 -14.4215 -12.9702 35.4591 5.16071 16.2865 176.186 26.4036 96.7648 -39.7796 -3.03281 0.950942 67.4041 -3.22161 -1.72997 30.4332 0.27136 -3.6316 -0.935851 7.79153 -90.3605 11.287 -2.03021 -0.515952 -0.38243 -2.05095 -0.426077 -22.927 -1.78127 -1.10242 -2.91437 -1.78128 -1.10243 96.1187 -49.2221 -91.4833 26.8083 -2.03719 21.8506 -9.98384 -28.3274 -36.2931 2.89097 -0.348702 7.03789 -92.2559 -43.6801 73.6713 -20.4416 7.66356 -4.96932 7.10022 1.90023 -59.6534 18.8148 1.20169 2.52297 9.44667 1.23423 -3.41308 -4.80317 1.88222 7.89101 
91.4832 91.976 23.2938 96.8954 -38.1111 96.4576 -171.322 3.41842 97.5174 -62.3758 20.9765 1.12848 40.3317 -11.5851 -7.18386 37.6439 7.38481 15.4214 176.49 20.8052 97.1343 -39.7859 -3.82709 0.696473 71.5912 -4.62841 -2.33449 27.0288 0.175376 -3.28032 -0.553017 7.79634 -90.2972 11.2792 -1.23887 -0.469288 -0.391173 -1.25833 -0.414305 -22.9292 -1.04055 -0.819949 -2.9166 -1.04056 -0.819948 95.2875 -47.8084 -92.9788 30.0455 -2.5127 19.3838 -10.0589 -26.3103 -37.1677 -0.858134 -0.601603 6.75511 -93.0463 -44.9063 72.7777 -21.0636 10.5057 -4.53857 6.45468 4.33344 -51.6081 17.7724 1.30209 3.47848 8.98324 0.300321 -2.66698 -4.69988 0.813785 5.63031 
96.5026 94.0287 28.1234 97.2383 -39.5197 95.3442 -170.935 11.1887 95.2777 -63.9591 17.4555 0.0692979 46.484 -7.65003 -3.21635 39.3855 9.11369 14.5716 177.155 13.7795 96.4655 -35.5485 -4.70846 -0.426475 72.5717 -5.10419 -2.53118 26.5818 0.198271 -3.6857 -0.227286 7.78669 -90.0414 11.3006 -0.471484 -0.0349957 -0.370272 -0.472593 -0.0142126 -22.9062 -0.439192 -0.175086 -2.89351 -0.439168 -0.175082 94.7407 -46.8704 -93.9927 31.7412 -4.87552 15.5099 -9.45625 -25.1759 -39.9472 -2.49957 -0.684264 6.0607 -93.0692 -45.5241 72.9219 -23.6125 12.0759 -3.3313 5.00408 7.2094 -41.6392 15.8362 1.18862 3.59652 8.37964 -0.342045 -2.31691 -4.92878 0.090588 4.09831 
101.466 95.8251 32.6616 97.2902 -42.9398 94.2428 -169.448 16.7384 93.4145 -57.0506 12.1825 -1.62314 51.264 -4.58051 -3.89837 39.8308 9.60027 15.1421 177.425 7.50538 95.2571 -31.044 -7.37309 -1.64719 71.1344 -4.77156 -2.42515 29.0429 0.197928 -2.97472 0.235457 7.73717 -89.7801 11.3985 0.571076 0.380421 -0.272372 0.587247 0.354914 -22.8077 0.430334 0.534469 -2.79506 0.43032 0.534456 94.3006 -46.4501 -94.7688 31.5558 -7.59 10.8139 -9.76174 -24.6743 -44.8017 -3.38469 -0.65788 3.91793 -93.1025 -46.2791 73.0873 -25.998 13.2196 -0.191514 3.63882 10.1344 -33.5801 13.5132 1.03547 3.68728 8.08543 -0.394315 -2.02008 -5.74762 -0.044505 3.38144 
